<svg width="4.42em" height="1em" viewBox="0 0 177 40" fill="none" xmlns="http://www.w3.org/2000/svg" class="svg">
<path fill-rule="evenodd" clip-rule="evenodd" d="M20 38C29.9411 38 38 29.9411 38 20C38 10.0589 29.9411 2 20 2C10.0589 2 2 10.0589 2 20C2 29.9411 10.0589 38 20 38Z" fill="#5EBB1E"></path>
<path fill-rule="evenodd" clip-rule="evenodd" d="M22.3618 36.5272C28.5143 35.6611 33.5825 31.423 35.6411 25.7409C35.4782 25.8016 35.2805 25.8727 35.0439 25.9439C32.2766 26.7612 30.3342 25.2985 29.9425 25.0451C29.5509 24.7953 29.1311 24.3799 29.0533 24.4022C28.7996 25.9709 27.3683 28.1486 24.0988 29.1373C22.3099 29.6799 20.3821 29.6923 19.0083 28.9207L19.4617 30.0594C19.6428 30.5133 19.9473 31.2574 20.1362 31.7096C20.1362 31.7096 21.3237 34.539 22.3618 36.5272Z" fill="white"></path>
<path fill-rule="evenodd" clip-rule="evenodd" d="M7.17546 13.2942L12.0774 12.3813C12.5233 12.2998 13.0175 12.5531 13.1742 12.9444L16.5422 21.3457C17 22.2218 17.0945 22.4153 17.3919 22.7895C17.3919 22.7895 19.7175 26.1074 23.262 25.2967C25.6514 24.7508 26.7685 22.9572 26.8438 21.681C26.9222 21.2715 26.7992 20.7561 26.5868 20.2756L22.5534 11.1596C22.3914 10.7911 22.5835 10.4315 22.977 10.3552L27.0644 9.59383C27.4397 9.52688 27.8789 9.7599 28.0424 10.1144L32.5103 19.6772C32.6899 20.0591 33.0554 20.6627 33.3232 21.0141C33.3232 21.0141 34.2524 22.3484 35.7418 22.0951C36.1093 22.0951 36.5287 21.8958 36.5287 21.8958C36.5941 21.3006 36.6289 20.697 36.6289 20.0835C36.6289 10.9115 29.1912 3.47656 20.0155 3.47656C10.8424 3.47656 3.40625 10.9115 3.40625 20.0835C3.40625 27.4438 8.19602 33.6835 14.8297 35.8622C14.3811 34.9405 13.928 33.9222 13.5573 32.9268L6.5868 14.2003C6.43366 13.7893 6.70152 13.3835 7.17546 13.2942Z" fill="white"></path>
<path fill-rule="evenodd" clip-rule="evenodd" d="M137.546 28.0136L133.22 11.667H134.791L137.615 22.6867C137.933 23.8984 138.366 25.9102 138.366 25.9102H138.411C138.411 25.9102 138.867 23.9441 139.186 22.7781L142.168 11.667H143.808L146.79 22.7552C147.086 23.9212 147.542 25.9102 147.542 25.9102H147.587C147.587 25.9102 148.043 23.8984 148.339 22.6867L151.185 11.667H152.71L148.293 28.0136H146.745L143.648 16.1023C143.352 15.0735 143.011 13.4503 143.011 13.4503H142.965C142.965 13.4503 142.624 15.0506 142.35 16.1023L139.163 28.0136H137.546ZM157.901 28.3108C154.372 28.3108 152.414 25.6588 152.414 22.1151C152.414 18.5714 154.531 15.9194 157.787 15.9194C161.567 15.9194 162.865 19.0515 162.842 22.3666H153.871C153.939 25.0186 155.214 27.0991 157.901 27.0991C159.859 27.0991 160.884 26.0474 161.339 24.4471H162.705C162.204 26.779 160.542 28.3108 157.901 28.3108ZM161.362 21.2463H153.894C154.145 18.8915 155.397 17.0854 157.788 17.0854C160.201 17.0854 161.294 18.9144 161.362 21.2463ZM169.946 28.3337C168.147 28.3337 166.964 27.6249 166.053 26.2303H166.007V28.0136H164.596V11.667H166.007V18.2285H166.053C166.872 16.8567 168.17 15.9423 170.037 15.9423C172.861 15.9423 174.887 18.2056 174.887 22.138C174.887 25.7731 173.043 28.3337 169.946 28.3337ZM173.452 22.1608C173.452 24.9272 172.291 27.1448 169.878 27.1448C167.259 27.1448 165.893 25.1101 165.893 22.1608C165.893 19.3487 167.259 17.1311 169.855 17.1311C172.2 17.1311 173.452 19.2116 173.452 22.1608Z" fill="white"></path>
<path fill-rule="evenodd" clip-rule="evenodd" d="M55.9666 15.1614H59.9289C59.9996 15.1613 60.0576 15.2176 60.0605 15.2888V28.1512C60.0605 28.2245 60.1194 28.284 60.192 28.284H64.0018C64.0744 28.284 64.1333 28.2245 64.1333 28.1512V15.2835C64.1333 15.2102 64.1922 15.1508 64.2649 15.1508H68.2746C68.3472 15.1508 68.4061 15.0913 68.4061 15.018V11.7998C68.4061 11.7264 68.3472 11.667 68.2746 11.667H55.9666C55.8939 11.667 55.835 11.7264 55.835 11.7998V15.0286C55.835 15.1019 55.8939 15.1614 55.9666 15.1614ZM72.1999 16.0695C68.4165 16.0695 65.8854 18.7886 65.8854 22.3626L65.9117 22.3573C65.9117 25.9367 68.4007 28.6557 72.1999 28.6557C75.9991 28.6557 78.4828 25.9367 78.4828 22.3626C78.4828 18.7886 75.9833 16.0695 72.1999 16.0695ZM74.673 22.3626C74.673 20.2012 73.7995 18.7408 72.163 18.7408C70.5265 18.7408 69.6793 20.2012 69.6793 22.3626C69.6793 24.524 70.5317 25.9632 72.163 25.9632C73.7942 25.9632 74.7046 24.5187 74.7046 22.3573L74.673 22.3626ZM83.2661 16.3934H79.9352L79.9562 16.3881C79.9179 16.3819 79.8787 16.393 79.8493 16.4186C79.8199 16.4442 79.8031 16.4817 79.8036 16.5209V28.1512C79.8036 28.2245 79.8625 28.284 79.9352 28.284H83.424C83.4966 28.284 83.5555 28.2245 83.5555 28.1512V22.9415C83.5555 20.3658 85.0657 19.2824 87.0495 19.5533H87.1442V16.3934C87.1451 16.3387 87.1112 16.2895 87.06 16.2713C86.8476 16.2133 86.6271 16.1918 86.4076 16.2076C85.3393 16.2501 84.2922 16.8342 83.466 18.2522H83.3976V16.5262C83.3976 16.4529 83.3387 16.3934 83.2661 16.3934ZM88.3914 16.3934H91.7223C91.795 16.3934 91.8539 16.4529 91.8539 16.5262V18.2522H91.9223C92.7484 16.8342 93.7956 16.2501 94.8638 16.2076C95.0833 16.1918 95.3039 16.2133 95.5163 16.2713C95.5674 16.2895 95.6013 16.3387 95.6005 16.3934V19.5533H95.5058C93.543 19.2771 92.0275 20.3605 92.0275 22.9521V28.1618C92.0275 28.2351 91.9686 28.2946 91.896 28.2946H88.4072C88.3346 28.2946 88.2757 28.2351 88.2757 28.1618V16.5209C88.2757 16.4848 88.2902 16.4502 88.3161 16.4251C88.3419 16.4 88.3767 16.3867 88.4125 16.3881L88.3914 16.3934ZM101.789 16.0483C98.2 16.0483 95.7111 18.7567 95.7111 22.3095C95.7111 25.9101 98.1264 28.6292 102.026 28.6504C103.337 28.6862 104.626 28.3033 105.709 27.5564C106.64 26.9251 107.325 25.9863 107.645 24.9011C107.657 24.8601 107.649 24.8158 107.623 24.7821C107.597 24.7484 107.556 24.7294 107.514 24.7312H104.109C104.06 24.7308 104.014 24.7599 103.994 24.8055C103.641 25.5392 102.878 25.9798 102.073 25.9154C100.573 25.9154 99.705 24.9808 99.4419 23.4725C99.4358 23.4333 99.4468 23.3934 99.472 23.3629C99.4971 23.3324 99.5341 23.3143 99.5734 23.3132H107.756C107.827 23.3105 107.885 23.2526 107.888 23.1805C107.882 20.8278 107.193 18.8098 105.814 17.5353C104.71 16.5379 103.27 16.0057 101.789 16.0483ZM103.914 21.0562C103.953 21.055 103.989 21.0376 104.014 21.0083C104.039 20.9791 104.05 20.9406 104.046 20.9022C103.862 19.5745 102.994 18.7301 101.831 18.7301C100.457 18.7301 99.7258 19.5692 99.447 20.8916C99.4392 20.9316 99.4493 20.9731 99.4747 21.0048C99.5001 21.0366 99.5381 21.0554 99.5785 21.0562H103.914ZM112.634 16.3881H109.308C109.305 16.388 109.301 16.388 109.298 16.3881C109.266 16.3894 109.235 16.4025 109.212 16.4251C109.186 16.4502 109.171 16.4848 109.171 16.5209V28.1512C109.171 28.2245 109.23 28.284 109.303 28.284H112.792C112.864 28.284 112.923 28.2245 112.923 28.1512V21.6935C112.923 20.249 113.776 19.1868 114.996 19.1868C116.217 19.1868 116.838 20.0578 116.838 21.3111V28.1299C116.838 28.2033 116.897 28.2627 116.97 28.2627H120.443C120.512 28.2692 120.574 28.2204 120.585 28.1512V20.5517C120.585 17.907 119.069 16.0483 116.491 16.0483C115.011 15.9943 113.616 16.744 112.834 18.0132H112.765V16.5209C112.765 16.4476 112.706 16.3881 112.634 16.3881ZM122.863 25.1454V18.8895C122.863 18.8161 122.804 18.7567 122.732 18.7567H121.427C121.354 18.7567 121.295 18.6972 121.295 18.6239V16.4997C121.295 16.4263 121.354 16.3669 121.427 16.3669H122.732C122.804 16.3669 122.863 16.3075 122.863 16.2341V12.761C122.863 12.6877 122.922 12.6282 122.995 12.6282H126.394C126.467 12.6282 126.526 12.6877 126.526 12.761V16.2607C126.526 16.334 126.584 16.3935 126.657 16.3935H128.536C128.608 16.3935 128.667 16.4529 128.667 16.5262V18.6505C128.667 18.7238 128.608 18.7832 128.536 18.7832H126.657C126.584 18.7832 126.526 18.8427 126.526 18.916V24.3329C126.526 25.2622 127.052 25.4959 127.836 25.4959H129.093C129.166 25.4959 129.225 25.5553 129.225 25.6286V28.1512C129.223 28.215 129.177 28.2685 129.114 28.2787C128.286 28.3902 127.451 28.4434 126.615 28.438C124.452 28.422 122.884 27.6998 122.884 25.1454H122.863ZM49.615 16.3297H46.1316C46.0589 16.3297 46 16.3892 46 16.4625V32.097C46 32.1703 46.0589 32.2298 46.1316 32.2298H49.5677C49.6403 32.2298 49.6992 32.1703 49.6992 32.097V28.2362H49.7466C50.083 28.48 50.4904 28.6034 50.9043 28.5867C52.094 28.575 53.1762 27.8893 53.7037 26.8129H53.7721V28.1459C53.7721 28.2192 53.831 28.2787 53.9036 28.2787H57.2714C57.344 28.2787 57.4029 28.2192 57.4029 28.1459V16.4625C57.4029 16.3892 57.344 16.3297 57.2714 16.3297H53.7616C53.6889 16.3297 53.63 16.3892 53.63 16.4625V23.0264C53.63 24.4762 52.8196 25.4322 51.5252 25.4322C50.3254 25.4322 49.7466 24.7365 49.7466 23.4035V16.4625C49.7466 16.3892 49.6877 16.3297 49.615 16.3297Z" fill="#5EBB1E"></path>
</svg>